<!--?xml version="1.0" standalone="no"?--><svg version="1.0" xmlns="http://www.w3.org/2000/svg" width="300.000000pt" height="300.000000pt" viewBox="0 0 300.000000 300.000000" preserveAspectRatio="xMidYMid meet">
<metadata>
  <rdf:rdf xmlns:rdf="http://www.w3.org/1999/02/22-rdf-syntax-ns#" xmlns:rdfs="http://www.w3.org/2000/01/rdf-schema#" xmlns:dc="http://purl.org/dc/elements/1.1/">
    <rdf:description dc:title="heart" dc:publisher="Hiox" dc:date="2015-04-21" dc:format="image/svg+xml" dc:language="en">
      <dc:creator>
        <rdf:bag>
          <rdf:li>svgimages.com</rdf:li>
        </rdf:bag>
      </dc:creator>
    </rdf:description>
  </rdf:rdf>
</metadata>
<g transform="translate(0.000000,300.000000) scale(0.100000,-0.100000)" fill="#FF0707" stroke="none">
<path d="M700 2699 c-282 -64 -479 -276 -521 -559 -12 -88 -7 -261 12 -380 10
-63 45 -185 59 -205 4 -5 13 -26 20 -45 57 -145 258 -366 599 -660 93 -79 245
-213 325 -284 38 -33 74 -65 80 -71 6 -5 60 -54 119 -108 l107 -99 107 99 c59
54 113 103 119 108 6 6 42 38 80 71 80 71 232 205 325 284 341 294 542 515
599 660 7 19 16 40 20 45 14 20 49 142 59 205 19 119 24 292 12 380 -43 289
-243 499 -532 560 -162 34 -299 16 -456 -62 -98 -48 -237 -171 -293 -258 -18
-28 -36 -50 -40 -50 -4 0 -22 22 -40 50 -17 27 -71 87 -119 132 -180 171 -412
239 -641 187z" id="node1" class="node" stroke-width="20"></path>
</g>
<g transform="translate(0.000000,300.000000) scale(0.100000,-0.100000)" fill="#FF5C5C" stroke="none">



































































</g>
<g transform="translate(0.000000,300.000000) scale(0.100000,-0.100000)" fill="#FF9F9F" stroke="none">







































































</g>
<g transform="translate(0.000000,300.000000) scale(0.100000,-0.100000)" fill="#FFFFFF" stroke="none">

</g>
</svg>