<?xml version="1.0" encoding="UTF-8" standalone="no"?>
<!-- Created with Inkscape (http://www.inkscape.org/) -->

<svg
   xmlns:dc="http://purl.org/dc/elements/1.1/"
   xmlns:cc="http://creativecommons.org/ns#"
   xmlns:rdf="http://www.w3.org/1999/02/22-rdf-syntax-ns#"
   xmlns:svg="http://www.w3.org/2000/svg"
   xmlns="http://www.w3.org/2000/svg"
   xmlns:sodipodi="http://sodipodi.sourceforge.net/DTD/sodipodi-0.dtd"
   xmlns:inkscape="http://www.inkscape.org/namespaces/inkscape"
   width="744.09448"
   height="1052.3622"
   id="svg4392"
   version="1.1"
   inkscape:version="0.91 r13725"
   viewBox="0 0 744.09448 1052.3622"
   sodipodi:docname="offers.svg">
  <defs
     id="defs4394" />
  <sodipodi:namedview
     id="base"
     pagecolor="#ffffff"
     bordercolor="#ffffff"
     borderopacity="0.0"
     inkscape:pageopacity="0.0"
     inkscape:pageshadow="0"
     inkscape:zoom="0.35"
     inkscape:cx="31.428571"
     inkscape:cy="520"
     inkscape:document-units="px"
     inkscape:current-layer="layer1"
     showgrid="false"
     inkscape:window-width="1920"
     inkscape:window-height="1005"
     inkscape:window-x="-9"
     inkscape:window-y="-9"
     inkscape:window-maximized="1" />
  <metadata
     id="metadata4397">
    <rdf:RDF>
      <cc:Work
         rdf:about="">
        <dc:format>image/svg+xml</dc:format>
        <dc:type
           rdf:resource="http://purl.org/dc/dcmitype/StillImage" />
        <dc:title></dc:title>
      </cc:Work>
    </rdf:RDF>
  </metadata>
  <g
     inkscape:label="Layer 1"
     inkscape:groupmode="layer"
     id="layer1"
     style="opacity:0" />
  <g
     inkscape:groupmode="layer"
     id="layer3"
     inkscape:label="Drawing">
    <path
       inkscape:connector-curvature="0"
       style="font-style:normal;font-weight:normal;font-size:40px;line-height:125%;font-family:sans-serif;letter-spacing:0px;word-spacing:0px;opacity:1;fill:#ffffff;fill-opacity:1;stroke:none;stroke-width:1px;stroke-linecap:butt;stroke-linejoin:miter;stroke-opacity:1"
       d="m -2033.9695,-477.41749 c -10.1582,0 -17.9124,3.19359 -23.2659,9.57713 -5.3539,6.33032 -8.0302,16.06545 -8.0302,29.20488 0,12.87345 2.6087,22.55121 7.8251,29.04114 5.2623,6.43672 13.0838,9.65675 23.471,9.65675 10.0669,0 17.7335,-3.19356 22.9957,-9.57711 5.2622,-6.38352 7.8906,-16.19803 7.8906,-29.44386 0,-12.92666 -2.5846,-22.55148 -7.7553,-28.8818 -5.1709,-6.38354 -12.881,-9.57713 -23.131,-9.57713 z m 65.9644,2.31463 -53.5419,118.81106 18.4638,0 53.5374,-118.81106 -18.4593,0 z m -66.1694,14.67988 c 3.8439,0 6.612,1.49094 8.305,4.46991 1.6931,2.97898 2.5386,8.72655 2.5386,17.23792 0,8.61777 -0.8455,14.41383 -2.5386,17.39281 -1.693,2.979 -4.4611,4.46991 -8.305,4.46991 -3.8437,0 -6.6118,-1.49091 -8.3049,-4.46991 -1.693,-2.97898 -2.5385,-8.74857 -2.5385,-17.31314 0,-8.56458 0.8455,-14.33861 2.5385,-17.31759 1.6931,-2.97897 4.4612,-4.46991 8.3049,-4.46991 z m 81.7323,32.49315 c -0.3059,0.15748 -0.6228,0.30042 -0.9203,0.46912 0.1429,-0.009 0.3091,-0.0159 0.4755,-0.009 0.1429,-0.15839 0.293,-0.31632 0.4448,-0.46025 z m 4.4011,16.1315 c -0.049,0.0641 -0.096,0.12214 -0.1429,0.18581 -0.2032,0.37485 -0.3942,0.75381 -0.5889,1.13297 0.2499,-0.43828 0.4953,-0.87848 0.7417,-1.31885 -0,-1.5e-4 0,1.6e-4 0,0 z m -15.6589,43.16781 c 0.2662,0.53612 0.5346,1.06816 0.8243,1.57553 -0.072,-0.45899 -0.1363,-0.91766 -0.1742,-1.38079 -0.2167,-0.0664 -0.4351,-0.12372 -0.6499,-0.19465 z"
       id="flowRoot3358" />
    <flowRoot
       xml:space="preserve"
       id="flowRoot3386"
       style="font-style:normal;font-weight:normal;font-size:40px;line-height:125%;font-family:sans-serif;letter-spacing:0px;word-spacing:0px;opacity:1;fill:#ffffff;fill-opacity:1;stroke:none;stroke-width:1px;stroke-linecap:butt;stroke-linejoin:miter;stroke-opacity:1;"
       transform="matrix(2.2332653,0,0,2.265934,-2168.7926,-486.26435)"><flowRegion
         id="flowRegion3388"><rect
           id="rect3390"
           width="116.66666"
           height="58.333332"
           x="89.166664"
           y="15"
           style="fill:#ffffff;" /></flowRegion><flowPara
         id="flowPara3392"
         style="font-weight:bold;fill:#ffffff;">D</flowPara></flowRoot>    <ellipse
       id="path3394"
       cx="-1820.0309"
       cy="-416.20926"
       rx="63.275852"
       ry="61.369049"
       style="opacity:1;fill:#ffffff" />
    <flowRoot
       xml:space="preserve"
       id="flowRoot3396"
       style="font-style:normal;font-weight:normal;font-size:40px;line-height:125%;font-family:sans-serif;letter-spacing:0px;word-spacing:0px;opacity:1;fill:#ffffff;fill-opacity:1;stroke:none;stroke-width:1px;stroke-linecap:butt;stroke-linejoin:miter;stroke-opacity:1;"
       transform="matrix(2.2332653,0,0,2.265934,-2079.8343,-467.00391)"><flowRegion
         id="flowRegion3398"><rect
           id="rect3400"
           width="124.16666"
           height="53.333332"
           x="145.83333"
           y="3.3333333"
           style="fill:#ffffff;" /></flowRegion><flowPara
         id="flowPara3402"
         style="font-weight:bold;fill:#ffffff;">ffers</flowPara></flowRoot>    <ellipse
       id="path3404"
       cx="-1463.2668"
       cy="-407.90079"
       rx="51.178997"
       ry="50.039379"
       style="opacity:1;fill:#ffffff" />
    <flowRoot
       xml:space="preserve"
       id="flowRoot3406"
       style="font-style:normal;font-weight:normal;font-size:40px;line-height:125%;font-family:sans-serif;letter-spacing:0px;word-spacing:0px;opacity:1;fill:#ffffff;fill-opacity:1;stroke:none;stroke-width:1px;stroke-linecap:butt;stroke-linejoin:miter;stroke-opacity:1;"
       transform="matrix(2.2332653,0,0,2.265934,-2061.9682,-476.06765)"><flowRegion
         id="flowRegion3408"><rect
           id="rect3410"
           width="62.5"
           height="59.166668"
           x="255"
           y="-1.4210855e-014"
           style="fill:#ffffff;" /></flowRegion><flowPara
         id="flowPara3412">n</flowPara></flowRoot>    <ellipse
       style="opacity:1;fill:#ffffff"
       id="path3414"
       cx="-1820.2172"
       cy="-414.13211"
       rx="32.568451"
       ry="33.98901" />
    <flowRoot
       xml:space="preserve"
       id="flowRoot3416"
       style="font-style:normal;font-weight:normal;font-size:70px;line-height:125%;font-family:sans-serif;letter-spacing:0px;word-spacing:0px;opacity:1;fill:#ffffff;fill-opacity:1;stroke:none;stroke-width:1px;stroke-linecap:butt;stroke-linejoin:miter;stroke-opacity:1;"
       transform="matrix(2.2332653,0,0,2.265934,-2079.8343,-521.38633)"><flowRegion
         id="flowRegion3418"><rect
           id="rect3420"
           width="109.16666"
           height="79.166664"
           x="296.66666"
           y="-1.4210855e-014"
           style="font-size:70px;fill:#ffffff;" /></flowRegion><flowPara
         id="flowPara3422"
         style="font-weight:bold;font-size:70px;fill:#ffffff;">D</flowPara></flowRoot>    <flowRoot
       xml:space="preserve"
       id="flowRoot3424"
       style="font-style:normal;font-weight:normal;font-size:40px;line-height:125%;font-family:sans-serif;letter-spacing:0px;word-spacing:0px;opacity:1;fill:#ffffff;fill-opacity:1;stroke:none;stroke-width:1px;stroke-linecap:butt;stroke-linejoin:miter;stroke-opacity:1;"
       transform="matrix(2.2332653,0,0,2.265934,-2088.7674,-494.19512)"><flowRegion
         id="flowRegion3426"><rect
           id="rect3428"
           width="215.83336"
           height="77.5"
           x="355"
           y="14.166667"
           style="fill:#ffffff;" /></flowRegion><flowPara
         id="flowPara3430"
         style="font-weight:bold;fill:#ffffff;">iscounts</flowPara></flowRoot>  </g>
</svg>
